<mxfile host="app.diagrams.net" agent="Mozilla/5.0 (Windows NT 10.0; Win64; x64) AppleWebKit/537.36 (KHTML, like Gecko) Chrome/132.0.0.0 Safari/537.36" version="26.0.11">
  <diagram name="Страница — 1" id="GmVNu8evcIb6zKFwhb8-">
    <mxGraphModel dx="1942" dy="857" grid="1" gridSize="10" guides="1" tooltips="1" connect="1" arrows="1" fold="1" page="1" pageScale="1" pageWidth="827" pageHeight="1169" math="0" shadow="0">
      <root>
        <mxCell id="0" />
        <mxCell id="1" parent="0" />
        <mxCell id="hxDOR-kfbqP6Ii_-3h4L-1" value="" style="ellipse;whiteSpace=wrap;html=1;aspect=fixed;" vertex="1" parent="1">
          <mxGeometry x="250" y="340" width="80" height="80" as="geometry" />
        </mxCell>
        <mxCell id="hxDOR-kfbqP6Ii_-3h4L-2" value="" style="ellipse;whiteSpace=wrap;html=1;aspect=fixed;" vertex="1" parent="1">
          <mxGeometry x="50" y="110" width="80" height="80" as="geometry" />
        </mxCell>
        <mxCell id="hxDOR-kfbqP6Ii_-3h4L-3" value="" style="ellipse;whiteSpace=wrap;html=1;aspect=fixed;" vertex="1" parent="1">
          <mxGeometry x="660" y="420" width="80" height="80" as="geometry" />
        </mxCell>
        <mxCell id="hxDOR-kfbqP6Ii_-3h4L-4" value="" style="ellipse;whiteSpace=wrap;html=1;aspect=fixed;" vertex="1" parent="1">
          <mxGeometry x="30" y="460" width="80" height="80" as="geometry" />
        </mxCell>
        <mxCell id="hxDOR-kfbqP6Ii_-3h4L-5" value="" style="ellipse;whiteSpace=wrap;html=1;aspect=fixed;" vertex="1" parent="1">
          <mxGeometry x="460" y="220" width="80" height="80" as="geometry" />
        </mxCell>
        <mxCell id="hxDOR-kfbqP6Ii_-3h4L-6" value="" style="ellipse;whiteSpace=wrap;html=1;aspect=fixed;" vertex="1" parent="1">
          <mxGeometry x="670" y="110" width="80" height="80" as="geometry" />
        </mxCell>
        <mxCell id="hxDOR-kfbqP6Ii_-3h4L-7" value="" style="shape=flexArrow;endArrow=classic;startArrow=classic;html=1;rounded=0;" edge="1" parent="1" source="hxDOR-kfbqP6Ii_-3h4L-2" target="hxDOR-kfbqP6Ii_-3h4L-6">
          <mxGeometry width="100" height="100" relative="1" as="geometry">
            <mxPoint x="360" y="400" as="sourcePoint" />
            <mxPoint x="460" y="300" as="targetPoint" />
          </mxGeometry>
        </mxCell>
        <mxCell id="hxDOR-kfbqP6Ii_-3h4L-8" value="" style="shape=flexArrow;endArrow=classic;startArrow=classic;html=1;rounded=0;" edge="1" parent="1" source="hxDOR-kfbqP6Ii_-3h4L-1" target="hxDOR-kfbqP6Ii_-3h4L-2">
          <mxGeometry width="100" height="100" relative="1" as="geometry">
            <mxPoint x="360" y="400" as="sourcePoint" />
            <mxPoint x="460" y="300" as="targetPoint" />
          </mxGeometry>
        </mxCell>
        <mxCell id="hxDOR-kfbqP6Ii_-3h4L-9" value="" style="shape=flexArrow;endArrow=classic;startArrow=classic;html=1;rounded=0;" edge="1" parent="1" source="hxDOR-kfbqP6Ii_-3h4L-4" target="hxDOR-kfbqP6Ii_-3h4L-3">
          <mxGeometry width="100" height="100" relative="1" as="geometry">
            <mxPoint x="360" y="400" as="sourcePoint" />
            <mxPoint x="460" y="300" as="targetPoint" />
          </mxGeometry>
        </mxCell>
        <mxCell id="hxDOR-kfbqP6Ii_-3h4L-10" value="" style="shape=flexArrow;endArrow=classic;startArrow=classic;html=1;rounded=0;" edge="1" parent="1" source="hxDOR-kfbqP6Ii_-3h4L-1" target="hxDOR-kfbqP6Ii_-3h4L-5">
          <mxGeometry width="100" height="100" relative="1" as="geometry">
            <mxPoint x="360" y="400" as="sourcePoint" />
            <mxPoint x="460" y="300" as="targetPoint" />
          </mxGeometry>
        </mxCell>
        <mxCell id="hxDOR-kfbqP6Ii_-3h4L-11" value="" style="shape=flexArrow;endArrow=classic;startArrow=classic;html=1;rounded=0;" edge="1" parent="1" source="hxDOR-kfbqP6Ii_-3h4L-3" target="hxDOR-kfbqP6Ii_-3h4L-6">
          <mxGeometry width="100" height="100" relative="1" as="geometry">
            <mxPoint x="360" y="400" as="sourcePoint" />
            <mxPoint x="460" y="300" as="targetPoint" />
          </mxGeometry>
        </mxCell>
        <mxCell id="hxDOR-kfbqP6Ii_-3h4L-12" value="" style="shape=flexArrow;endArrow=classic;startArrow=classic;html=1;rounded=0;" edge="1" parent="1" source="hxDOR-kfbqP6Ii_-3h4L-4" target="hxDOR-kfbqP6Ii_-3h4L-2">
          <mxGeometry width="100" height="100" relative="1" as="geometry">
            <mxPoint x="360" y="400" as="sourcePoint" />
            <mxPoint x="460" y="300" as="targetPoint" />
          </mxGeometry>
        </mxCell>
        <mxCell id="hxDOR-kfbqP6Ii_-3h4L-13" value="" style="shape=flexArrow;endArrow=classic;startArrow=classic;html=1;rounded=0;" edge="1" parent="1" source="hxDOR-kfbqP6Ii_-3h4L-5" target="hxDOR-kfbqP6Ii_-3h4L-3">
          <mxGeometry width="100" height="100" relative="1" as="geometry">
            <mxPoint x="360" y="400" as="sourcePoint" />
            <mxPoint x="460" y="300" as="targetPoint" />
          </mxGeometry>
        </mxCell>
        <mxCell id="hxDOR-kfbqP6Ii_-3h4L-14" value="" style="shape=flexArrow;endArrow=classic;startArrow=classic;html=1;rounded=0;" edge="1" parent="1" source="hxDOR-kfbqP6Ii_-3h4L-6" target="hxDOR-kfbqP6Ii_-3h4L-5">
          <mxGeometry width="100" height="100" relative="1" as="geometry">
            <mxPoint x="360" y="400" as="sourcePoint" />
            <mxPoint x="500" y="270" as="targetPoint" />
          </mxGeometry>
        </mxCell>
        <mxCell id="hxDOR-kfbqP6Ii_-3h4L-15" value="" style="shape=flexArrow;endArrow=classic;startArrow=classic;html=1;rounded=0;" edge="1" parent="1" source="hxDOR-kfbqP6Ii_-3h4L-4" target="hxDOR-kfbqP6Ii_-3h4L-1">
          <mxGeometry width="100" height="100" relative="1" as="geometry">
            <mxPoint x="360" y="400" as="sourcePoint" />
            <mxPoint x="460" y="300" as="targetPoint" />
          </mxGeometry>
        </mxCell>
        <mxCell id="hxDOR-kfbqP6Ii_-3h4L-18" value="8" style="text;html=1;align=center;verticalAlign=middle;whiteSpace=wrap;rounded=0;" vertex="1" parent="1">
          <mxGeometry x="700" y="280" width="60" height="30" as="geometry" />
        </mxCell>
        <mxCell id="hxDOR-kfbqP6Ii_-3h4L-19" value="3" style="text;html=1;align=center;verticalAlign=middle;whiteSpace=wrap;rounded=0;" vertex="1" parent="1">
          <mxGeometry x="354" y="105" width="60" height="30" as="geometry" />
        </mxCell>
        <mxCell id="hxDOR-kfbqP6Ii_-3h4L-20" value="6" style="text;html=1;align=center;verticalAlign=middle;whiteSpace=wrap;rounded=0;" vertex="1" parent="1">
          <mxGeometry x="470" y="245" width="60" height="30" as="geometry" />
        </mxCell>
        <mxCell id="hxDOR-kfbqP6Ii_-3h4L-21" value="5" style="text;html=1;align=center;verticalAlign=middle;whiteSpace=wrap;rounded=0;" vertex="1" parent="1">
          <mxGeometry x="260" y="365" width="60" height="30" as="geometry" />
        </mxCell>
        <mxCell id="hxDOR-kfbqP6Ii_-3h4L-22" value="4" style="text;html=1;align=center;verticalAlign=middle;whiteSpace=wrap;rounded=0;" vertex="1" parent="1">
          <mxGeometry x="40" y="485" width="60" height="30" as="geometry" />
        </mxCell>
        <mxCell id="hxDOR-kfbqP6Ii_-3h4L-23" value="3" style="text;html=1;align=center;verticalAlign=middle;whiteSpace=wrap;rounded=0;" vertex="1" parent="1">
          <mxGeometry x="670" y="445" width="60" height="30" as="geometry" />
        </mxCell>
        <mxCell id="hxDOR-kfbqP6Ii_-3h4L-24" value="2" style="text;html=1;align=center;verticalAlign=middle;whiteSpace=wrap;rounded=0;" vertex="1" parent="1">
          <mxGeometry x="680" y="135" width="60" height="30" as="geometry" />
        </mxCell>
        <mxCell id="hxDOR-kfbqP6Ii_-3h4L-25" value="1" style="text;html=1;align=center;verticalAlign=middle;whiteSpace=wrap;rounded=0;" vertex="1" parent="1">
          <mxGeometry x="60" y="135" width="60" height="30" as="geometry" />
        </mxCell>
        <mxCell id="hxDOR-kfbqP6Ii_-3h4L-26" value="7" style="text;html=1;align=center;verticalAlign=middle;whiteSpace=wrap;rounded=0;" vertex="1" parent="1">
          <mxGeometry x="354" y="275" width="60" height="30" as="geometry" />
        </mxCell>
        <mxCell id="hxDOR-kfbqP6Ii_-3h4L-27" value="6" style="text;html=1;align=center;verticalAlign=middle;whiteSpace=wrap;rounded=0;" vertex="1" parent="1">
          <mxGeometry x="20" y="290" width="60" height="30" as="geometry" />
        </mxCell>
        <mxCell id="hxDOR-kfbqP6Ii_-3h4L-28" value="3" style="text;html=1;align=center;verticalAlign=middle;whiteSpace=wrap;rounded=0;" vertex="1" parent="1">
          <mxGeometry x="150" y="395" width="60" height="30" as="geometry" />
        </mxCell>
        <mxCell id="hxDOR-kfbqP6Ii_-3h4L-29" value="4" style="text;html=1;align=center;verticalAlign=middle;whiteSpace=wrap;rounded=0;" vertex="1" parent="1">
          <mxGeometry x="170" y="210" width="60" height="30" as="geometry" />
        </mxCell>
        <mxCell id="hxDOR-kfbqP6Ii_-3h4L-30" value="1" style="text;html=1;align=center;verticalAlign=middle;whiteSpace=wrap;rounded=0;" vertex="1" parent="1">
          <mxGeometry x="590" y="215" width="60" height="30" as="geometry" />
        </mxCell>
        <mxCell id="hxDOR-kfbqP6Ii_-3h4L-31" value="5" style="text;html=1;align=center;verticalAlign=middle;whiteSpace=wrap;rounded=0;" vertex="1" parent="1">
          <mxGeometry x="590" y="310" width="60" height="30" as="geometry" />
        </mxCell>
        <mxCell id="hxDOR-kfbqP6Ii_-3h4L-32" value="2" style="text;html=1;align=center;verticalAlign=middle;whiteSpace=wrap;rounded=0;" vertex="1" parent="1">
          <mxGeometry x="360" y="485" width="60" height="30" as="geometry" />
        </mxCell>
      </root>
    </mxGraphModel>
  </diagram>
</mxfile>
